<svg xmlns="http://www.w3.org/2000/svg" width="136" height="28" viewBox="0 0 136 28" fill="none">
<path fill-rule="evenodd" clip-rule="evenodd" d="M18.2474 0C16.9208 0 15.6118 0.290253 14.6894 0.67134C13.768 0.290253 12.459 0 11.1314 0C5.28184 0 0.000244141 5.57223 0.000244141 13.218C0.000244141 21.5539 6.75977 28 14.6894 28C22.6191 28 29.3796 21.5539 29.3796 13.218C29.3786 5.57223 24.097 0 18.2474 0ZM14.6894 4.53964C15.817 5.21515 17.3053 7.17279 17.3053 9.37997C17.3053 10.9993 16.2451 12.2741 14.6894 12.2741C13.1338 12.2741 12.0735 10.9993 12.0735 9.37997C12.0735 7.17279 13.5628 5.21515 14.6894 4.53964ZM14.6894 24.3583C8.62636 24.3583 3.61113 19.4459 3.61113 13.1449C3.61113 7.39309 7.73193 3.46215 10.9697 3.60937C9.43581 5.14938 8.50614 7.39205 8.50614 9.56477C8.50614 13.2994 11.4485 15.918 14.6894 15.918C17.9303 15.918 20.8727 13.2994 20.8727 9.56477C20.8727 7.39205 19.942 5.14938 18.4091 3.60937C21.6479 3.4632 25.7677 7.39309 25.7677 13.1449C25.7677 19.4459 20.7514 24.3583 14.6894 24.3583Z" fill="#0072BC"/>
<path d="M50.5317 6.37891V9.42447H55.1417V20.855H58.4065V9.42447H63.0164V6.37891H50.5328H50.5317Z" fill="#0072BC"/>
<path d="M104.255 6.37891H96.0368V9.44849H104.038C105.211 9.44849 105.669 9.98827 105.669 11.3748V11.8854H99.0393C96.5177 11.8854 95.2637 13.156 95.2637 16.0272V16.7111C95.2637 19.6637 96.5644 20.8508 99.1772 20.8508H108.901V11.3372C108.901 7.69131 107.705 6.37995 104.256 6.37995L104.255 6.37891ZM99.5161 17.7593C99.0217 17.7593 98.4683 17.5056 98.4683 16.2632C98.4683 15.0207 99.0155 14.8046 99.5161 14.8046H105.668V17.7593H99.5161Z" fill="#0072BC"/>
<path d="M131.354 6.37891H123.136V9.44849H131.138C132.312 9.44849 132.769 9.98827 132.769 11.3748C132.769 11.3821 132.77 11.7684 132.77 11.8854H126.139C123.618 11.8854 122.363 13.156 122.363 16.0272V16.7111C122.363 19.6637 123.664 20.8508 126.277 20.8508H136V11.3372C136 7.69131 134.804 6.37995 131.354 6.37995V6.37891ZM126.617 17.7593C126.122 17.7593 125.569 17.5056 125.569 16.2632C125.569 15.0207 126.117 14.8046 126.617 14.8046H132.769V17.7593H126.617Z" fill="#0072BC"/>
<path d="M64.0527 6.37891V9.42447H68.6617V20.855H71.9274V9.42447H76.5374V6.37891H64.0527Z" fill="#0072BC"/>
<path d="M109.556 6.37891V9.42447H114.165V20.855H117.431V9.42447H122.04V6.37891H109.556Z" fill="#0072BC"/>
<path d="M93.9967 15.7808V11.45C93.9967 7.6579 92.5375 6.37891 89.2437 6.37891H80.5046V20.8508H89.3971C92.893 20.8508 93.9967 19.101 93.9967 15.7808ZM90.6636 15.8445C90.6636 17.231 90.1993 17.7708 89.0261 17.7708H83.7704V9.46102H89.0261C90.1993 9.46102 90.6636 10.0008 90.6636 11.3873V15.8455V15.8445Z" fill="#0072BC"/>
<path d="M45.9279 17.4046C45.8584 17.272 41.4961 8.7106 40.9634 7.86699C40.3478 6.89287 39.5995 6.21631 38.1651 6.21631C36.8323 6.21631 35.2559 6.81248 35.2559 10.0345V20.8563H38.4739V11.8293C38.4739 11.1819 38.4335 10.2214 38.4252 10.0282C38.418 9.86953 38.4252 9.71918 38.505 9.6722C38.5983 9.61895 38.6906 9.70561 38.7527 9.82568C38.8149 9.94679 42.859 18.0039 43.7182 19.3633C44.3339 20.3374 45.0822 21.014 46.5176 21.014C47.8494 21.014 49.4268 20.4178 49.4268 17.1958V6.37396H46.2087V15.4C46.2087 16.0484 46.2471 17.0079 46.2554 17.201C46.2626 17.3597 46.2564 17.5101 46.1756 17.5571C46.0833 17.6113 45.9921 17.5236 45.9279 17.4036V17.4046Z" fill="#0072BC"/>
</svg>